<mxfile host="app.diagrams.net" agent="Mozilla/5.0 (Windows NT 10.0; Win64; x64) AppleWebKit/537.36 (KHTML, like Gecko) Chrome/138.0.0.0 Safari/537.36" version="27.2.0">
  <diagram id="Eys0XsjKiKcDp_Y2fm7s" name="第 1 页">
    <mxGraphModel dx="2066" dy="1111" grid="1" gridSize="10" guides="1" tooltips="1" connect="1" arrows="1" fold="1" page="1" pageScale="1" pageWidth="3300" pageHeight="4681" math="0" shadow="0">
      <root>
        <mxCell id="0" />
        <mxCell id="1" parent="0" />
        <mxCell id="eET4ICUnmijQ7LKeNfcv-2" value="" style="rounded=0;whiteSpace=wrap;html=1;" vertex="1" parent="1">
          <mxGeometry x="140" y="20" width="890" height="700" as="geometry" />
        </mxCell>
        <mxCell id="eET4ICUnmijQ7LKeNfcv-3" value="&lt;span style=&quot;font-size: 13px;&quot;&gt;namesrv模块&lt;/span&gt;" style="text;html=1;align=center;verticalAlign=middle;whiteSpace=wrap;rounded=0;labelBackgroundColor=none;textShadow=0;fillColor=#f5f5f5;fontColor=#333333;strokeColor=#666666;" vertex="1" parent="1">
          <mxGeometry x="140" y="20" width="890" height="30" as="geometry" />
        </mxCell>
        <mxCell id="eET4ICUnmijQ7LKeNfcv-4" value="" style="rounded=1;whiteSpace=wrap;html=1;" vertex="1" parent="1">
          <mxGeometry x="620" y="85" width="390" height="625" as="geometry" />
        </mxCell>
        <mxCell id="eET4ICUnmijQ7LKeNfcv-5" value="" style="rounded=0;whiteSpace=wrap;html=1;" vertex="1" parent="1">
          <mxGeometry x="630" y="150" width="370" height="400" as="geometry" />
        </mxCell>
        <mxCell id="eET4ICUnmijQ7LKeNfcv-6" value="加载 KV 配置：&lt;div&gt;kvConfigManager.load();&lt;/div&gt;" style="rounded=0;whiteSpace=wrap;html=1;" vertex="1" parent="1">
          <mxGeometry x="640" y="190" width="350" height="40" as="geometry" />
        </mxCell>
        <mxCell id="eET4ICUnmijQ7LKeNfcv-7" value="&lt;font style=&quot;&quot;&gt;&lt;span style=&quot;font-size: 18px;&quot;&gt;NameController&lt;/span&gt;&lt;br&gt;&lt;/font&gt;" style="text;html=1;align=center;verticalAlign=middle;whiteSpace=wrap;rounded=0;" vertex="1" parent="1">
          <mxGeometry x="710" y="110" width="210" height="30" as="geometry" />
        </mxCell>
        <mxCell id="eET4ICUnmijQ7LKeNfcv-8" value="&lt;div&gt;初始化远程服务器：&lt;/div&gt;&lt;div style=&quot;&quot;&gt;&lt;div style=&quot;text-align: left;&quot;&gt;this.remotingServer&lt;/div&gt;&lt;div style=&quot;&quot;&gt;&lt;div style=&quot;text-align: left;&quot;&gt;&lt;span style=&quot;background-color: transparent; color: light-dark(rgb(0, 0, 0), rgb(255, 255, 255));&quot;&gt;= new NettyRemotingServer&lt;/span&gt;&lt;/div&gt;&lt;div style=&quot;text-align: left;&quot;&gt;&lt;span style=&quot;background-color: transparent; color: light-dark(rgb(0, 0, 0), rgb(255, 255, 255));&quot;&gt;(this.nettyServerConfig, this.brokerHousekeepingService);&lt;/span&gt;&lt;/div&gt;&lt;/div&gt;&lt;/div&gt;&lt;div&gt;&lt;span style=&quot;background-color: transparent; color: light-dark(rgb(0, 0, 0), rgb(255, 255, 255));&quot;&gt;&lt;br&gt;&lt;/span&gt;&lt;/div&gt;" style="rounded=0;whiteSpace=wrap;html=1;" vertex="1" parent="1">
          <mxGeometry x="640" y="240" width="350" height="80" as="geometry" />
        </mxCell>
        <mxCell id="eET4ICUnmijQ7LKeNfcv-9" value="&lt;div&gt;初始化远程执行器：&lt;br&gt;this.remotingExecutor =&amp;nbsp;Executors.newFixedThreadPool()&lt;/div&gt;" style="rounded=0;whiteSpace=wrap;html=1;" vertex="1" parent="1">
          <mxGeometry x="640" y="340" width="350" height="40" as="geometry" />
        </mxCell>
        <mxCell id="eET4ICUnmijQ7LKeNfcv-10" value="&lt;span style=&quot;background-color: transparent;&quot;&gt;往远程服务器注册处理器：&lt;/span&gt;this.registerProcessor();&lt;div&gt;&lt;br&gt;&lt;/div&gt;" style="rounded=0;whiteSpace=wrap;html=1;align=center;verticalAlign=top;" vertex="1" parent="1">
          <mxGeometry x="640" y="400" width="350" height="90" as="geometry" />
        </mxCell>
        <mxCell id="eET4ICUnmijQ7LKeNfcv-11" value="" style="rounded=1;whiteSpace=wrap;html=1;" vertex="1" parent="1">
          <mxGeometry x="1070" y="85" width="300" height="480" as="geometry" />
        </mxCell>
        <mxCell id="eET4ICUnmijQ7LKeNfcv-12" value="&lt;span style=&quot;font-size: 18px;&quot;&gt;NettyRemotingServer&lt;/span&gt;" style="text;html=1;align=center;verticalAlign=middle;whiteSpace=wrap;rounded=0;" vertex="1" parent="1">
          <mxGeometry x="1130" y="95" width="180" height="50" as="geometry" />
        </mxCell>
        <mxCell id="eET4ICUnmijQ7LKeNfcv-13" value="#registerDefaultProcessor" style="rounded=0;whiteSpace=wrap;html=1;align=center;" vertex="1" parent="1">
          <mxGeometry x="1080" y="155" width="280" height="30" as="geometry" />
        </mxCell>
        <mxCell id="eET4ICUnmijQ7LKeNfcv-14" style="edgeStyle=orthogonalEdgeStyle;rounded=0;orthogonalLoop=1;jettySize=auto;html=1;entryX=0;entryY=0.5;entryDx=0;entryDy=0;dashed=1;" edge="1" parent="1" source="eET4ICUnmijQ7LKeNfcv-10" target="eET4ICUnmijQ7LKeNfcv-13">
          <mxGeometry relative="1" as="geometry" />
        </mxCell>
        <mxCell id="eET4ICUnmijQ7LKeNfcv-15" value="注册处理器" style="edgeLabel;html=1;align=center;verticalAlign=middle;resizable=0;points=[];" vertex="1" connectable="0" parent="eET4ICUnmijQ7LKeNfcv-14">
          <mxGeometry x="-0.0716" y="-2" relative="1" as="geometry">
            <mxPoint as="offset" />
          </mxGeometry>
        </mxCell>
        <mxCell id="eET4ICUnmijQ7LKeNfcv-16" value="&lt;div&gt;&lt;span style=&quot;background-color: transparent;&quot;&gt;定时扫描不活跃的 Broker：&lt;br&gt;&lt;/span&gt;this.routeInfoManager::scanNotActiveBroker&lt;/div&gt;" style="rounded=0;whiteSpace=wrap;html=1;" vertex="1" parent="1">
          <mxGeometry x="640" y="500" width="350" height="40" as="geometry" />
        </mxCell>
        <mxCell id="eET4ICUnmijQ7LKeNfcv-17" value="" style="rounded=1;whiteSpace=wrap;html=1;" vertex="1" parent="1">
          <mxGeometry x="180" y="120" width="370" height="480" as="geometry" />
        </mxCell>
        <mxCell id="eET4ICUnmijQ7LKeNfcv-18" style="edgeStyle=orthogonalEdgeStyle;rounded=0;orthogonalLoop=1;jettySize=auto;html=1;entryX=1;entryY=0.5;entryDx=0;entryDy=0;dashed=1;" edge="1" parent="1" source="eET4ICUnmijQ7LKeNfcv-16" target="eET4ICUnmijQ7LKeNfcv-21">
          <mxGeometry relative="1" as="geometry" />
        </mxCell>
        <mxCell id="eET4ICUnmijQ7LKeNfcv-19" value="每隔 10 秒执行一次" style="edgeLabel;html=1;align=center;verticalAlign=middle;resizable=0;points=[];" vertex="1" connectable="0" parent="eET4ICUnmijQ7LKeNfcv-18">
          <mxGeometry x="-0.0054" y="-2" relative="1" as="geometry">
            <mxPoint as="offset" />
          </mxGeometry>
        </mxCell>
        <mxCell id="eET4ICUnmijQ7LKeNfcv-20" value="&lt;span style=&quot;font-size: 18px;&quot;&gt;RouteInfoManager&lt;/span&gt;" style="text;html=1;align=center;verticalAlign=middle;whiteSpace=wrap;rounded=0;" vertex="1" parent="1">
          <mxGeometry x="240" y="130" width="240" height="50" as="geometry" />
        </mxCell>
        <mxCell id="eET4ICUnmijQ7LKeNfcv-21" value="scanNotActiveBroker&lt;br&gt;2分钟没有刷新：从brokerLiveTable中移除" style="rounded=0;whiteSpace=wrap;html=1;align=center;" vertex="1" parent="1">
          <mxGeometry x="195" y="190" width="340" height="30" as="geometry" />
        </mxCell>
        <mxCell id="eET4ICUnmijQ7LKeNfcv-22" value="&lt;span style=&quot;font-size: 13px;&quot;&gt;#initialize()&lt;/span&gt;" style="text;html=1;align=center;verticalAlign=middle;whiteSpace=wrap;rounded=0;labelBackgroundColor=none;textShadow=0;fillColor=#f5f5f5;fontColor=#333333;strokeColor=#666666;" vertex="1" parent="1">
          <mxGeometry x="630" y="150" width="370" height="30" as="geometry" />
        </mxCell>
        <mxCell id="eET4ICUnmijQ7LKeNfcv-23" value="" style="rounded=0;whiteSpace=wrap;html=1;" vertex="1" parent="1">
          <mxGeometry x="630" y="565" width="370" height="95" as="geometry" />
        </mxCell>
        <mxCell id="eET4ICUnmijQ7LKeNfcv-24" value="&lt;span style=&quot;font-size: 13px;&quot;&gt;#start()&lt;/span&gt;" style="text;html=1;align=center;verticalAlign=middle;whiteSpace=wrap;rounded=0;labelBackgroundColor=none;textShadow=0;fillColor=#f5f5f5;fontColor=#333333;strokeColor=#666666;" vertex="1" parent="1">
          <mxGeometry x="630" y="565" width="370" height="30" as="geometry" />
        </mxCell>
        <mxCell id="eET4ICUnmijQ7LKeNfcv-25" value="开启远程服务器：&lt;b&gt;9876&lt;/b&gt;&lt;br&gt;&lt;div style=&quot;text-align: left;&quot;&gt;&lt;span style=&quot;background-color: transparent;&quot;&gt;this.remotingServer.start();&lt;/span&gt;&lt;/div&gt;" style="rounded=0;whiteSpace=wrap;html=1;" vertex="1" parent="1">
          <mxGeometry x="640" y="610" width="350" height="40" as="geometry" />
        </mxCell>
        <mxCell id="eET4ICUnmijQ7LKeNfcv-26" value="&lt;div&gt;&lt;font style=&quot;font-size: 10px;&quot;&gt;this.remotingServer.registerDefaultProcessor&lt;/font&gt;&lt;/div&gt;&lt;div&gt;&lt;font style=&quot;font-size: 10px;&quot;&gt;(new DefaultRequestProcessor(this), this.remotingExecutor);&lt;/font&gt;&lt;/div&gt;" style="text;html=1;align=center;verticalAlign=middle;whiteSpace=wrap;rounded=0;" vertex="1" parent="1">
          <mxGeometry x="665" y="440" width="300" height="30" as="geometry" />
        </mxCell>
        <mxCell id="eET4ICUnmijQ7LKeNfcv-27" value="" style="rounded=0;whiteSpace=wrap;html=1;" vertex="1" parent="1">
          <mxGeometry x="1080" y="195" width="280" height="245" as="geometry" />
        </mxCell>
        <mxCell id="eET4ICUnmijQ7LKeNfcv-28" value="&lt;span style=&quot;font-size: 13px;&quot;&gt;#start()&lt;/span&gt;" style="text;html=1;align=center;verticalAlign=middle;whiteSpace=wrap;rounded=0;labelBackgroundColor=none;textShadow=0;fillColor=#f5f5f5;fontColor=#333333;strokeColor=#666666;" vertex="1" parent="1">
          <mxGeometry x="1080" y="195" width="280" height="30" as="geometry" />
        </mxCell>
        <mxCell id="eET4ICUnmijQ7LKeNfcv-29" style="edgeStyle=orthogonalEdgeStyle;rounded=0;orthogonalLoop=1;jettySize=auto;html=1;entryX=0;entryY=0.5;entryDx=0;entryDy=0;" edge="1" parent="1" source="eET4ICUnmijQ7LKeNfcv-30" target="eET4ICUnmijQ7LKeNfcv-31">
          <mxGeometry relative="1" as="geometry" />
        </mxCell>
        <mxCell id="eET4ICUnmijQ7LKeNfcv-30" value="eventLoopGroupBoss" style="rounded=0;whiteSpace=wrap;html=1;" vertex="1" parent="1">
          <mxGeometry x="1090" y="230" width="260" height="40" as="geometry" />
        </mxCell>
        <mxCell id="eET4ICUnmijQ7LKeNfcv-31" value="&lt;h3 style=&quot;margin-top: 0px;&quot;&gt;连接接收&lt;/h3&gt;&lt;p&gt;&lt;span style=&quot;background-color: transparent; color: light-dark(rgb(0, 0, 0), rgb(255, 255, 255));&quot;&gt;接收到新连接后，将新的 Channel 注册到 eventLoopGroupSelector 中的一个 EventLoop 上。&lt;/span&gt;&lt;span style=&quot;background-color: transparent; color: light-dark(rgb(0, 0, 0), rgb(255, 255, 255));&quot;&gt;.&lt;/span&gt;&lt;/p&gt;" style="text;html=1;whiteSpace=wrap;overflow=hidden;rounded=0;labelBorderColor=#D5E8D4;" vertex="1" parent="1">
          <mxGeometry x="1430" y="80" width="290" height="80" as="geometry" />
        </mxCell>
        <mxCell id="eET4ICUnmijQ7LKeNfcv-32" style="edgeStyle=orthogonalEdgeStyle;rounded=0;orthogonalLoop=1;jettySize=auto;html=1;entryX=0;entryY=0.5;entryDx=0;entryDy=0;" edge="1" parent="1" source="eET4ICUnmijQ7LKeNfcv-33" target="eET4ICUnmijQ7LKeNfcv-36">
          <mxGeometry relative="1" as="geometry">
            <mxPoint x="1410" y="270" as="targetPoint" />
            <Array as="points">
              <mxPoint x="1400" y="310" />
              <mxPoint x="1400" y="220" />
            </Array>
          </mxGeometry>
        </mxCell>
        <mxCell id="eET4ICUnmijQ7LKeNfcv-33" value="eventLoopGroupSelector" style="rounded=0;whiteSpace=wrap;html=1;" vertex="1" parent="1">
          <mxGeometry x="1090" y="290" width="260" height="40" as="geometry" />
        </mxCell>
        <mxCell id="eET4ICUnmijQ7LKeNfcv-34" style="edgeStyle=orthogonalEdgeStyle;rounded=0;orthogonalLoop=1;jettySize=auto;html=1;entryX=0;entryY=0.5;entryDx=0;entryDy=0;" edge="1" parent="1" source="eET4ICUnmijQ7LKeNfcv-35" target="eET4ICUnmijQ7LKeNfcv-37">
          <mxGeometry relative="1" as="geometry" />
        </mxCell>
        <mxCell id="eET4ICUnmijQ7LKeNfcv-35" value="defaultEventExecutorGroup&lt;br&gt;&lt;br&gt;&lt;font style=&quot;font-size: 10px;&quot;&gt;处理器：connectionManageHandler、NettyServerHandler&lt;/font&gt;" style="rounded=0;whiteSpace=wrap;html=1;verticalAlign=top;" vertex="1" parent="1">
          <mxGeometry x="1090" y="350" width="260" height="70" as="geometry" />
        </mxCell>
        <mxCell id="eET4ICUnmijQ7LKeNfcv-36" value="&lt;h3 style=&quot;margin-top: 0px;&quot;&gt;I/O 事件处理&lt;/h3&gt;&lt;p&gt;&lt;span style=&quot;background-color: transparent;&quot;&gt;基于 poll/epoll 机制轮询监听 Channel 的读写、连接断开等事件。&lt;font color=&quot;rgba(0, 0, 0, 0)&quot;&gt;.&lt;/font&gt;&lt;/span&gt;&lt;/p&gt;" style="text;html=1;whiteSpace=wrap;overflow=hidden;rounded=0;labelBorderColor=#D5E8D4;" vertex="1" parent="1">
          <mxGeometry x="1430" y="180" width="290" height="80" as="geometry" />
        </mxCell>
        <mxCell id="eET4ICUnmijQ7LKeNfcv-37" value="&lt;h3 style=&quot;margin-top: 0px;&quot;&gt;业务逻辑处理&lt;/h3&gt;&lt;p&gt;&lt;span style=&quot;background-color: transparent;&quot;&gt;I/O 事件触发&amp;nbsp;&lt;/span&gt;&lt;span style=&quot;background-color: transparent;&quot;&gt;ChannelPipeline 中处理器逻辑时，交由该线程池处理&lt;/span&gt;&lt;span style=&quot;background-color: transparent; color: light-dark(rgb(0, 0, 0), rgb(255, 255, 255));&quot;&gt;。&lt;/span&gt;&lt;font style=&quot;background-color: transparent;&quot;&gt;.&lt;/font&gt;&lt;/p&gt;" style="text;html=1;whiteSpace=wrap;overflow=hidden;rounded=0;labelBorderColor=#D5E8D4;" vertex="1" parent="1">
          <mxGeometry x="1430" y="280" width="290" height="80" as="geometry" />
        </mxCell>
      </root>
    </mxGraphModel>
  </diagram>
</mxfile>
